<svg width="124" height="154" xmlns="http://www.w3.org/2000/svg"><g fill="none" fill-rule="evenodd"><path d="M102.309 31.893a5 5 0 011.632.3 4.987 4.987 0 012.96 3.002c.185.529.275 1.083.278 1.643V82.52c-2.314-1.353-5.405-2.18-8.798-2.18-2.184 0-4.242.342-6.049.947-3.98-2.566-9.208-4.124-14.93-4.124-4.727 0-9.117 1.064-12.745 2.88-2.233-1.15-5.079-1.838-8.176-1.838-3.761 0-7.151 1.016-9.524 2.639-1.823-.618-3.904-.97-6.113-.97-4.142 0-7.833 1.233-10.212 3.15a33.19 33.19 0 00-5.672-.477c-3.059 0-5.93.398-8.406 1.094V36.838c.004-.56.094-1.114.28-1.643a4.987 4.987 0 012.959-3.002 5.002 5.002 0 011.632-.3h80.884z" fill="#146396"/><path d="M94.578 54.313c4.465 0 8.091 3.633 8.091 8.108 0 4.476-3.626 8.11-8.091 8.11-4.466 0-8.092-3.634-8.092-8.11 0-4.475 3.626-8.108 8.092-8.108z" fill="#146396"/><path d="M94.578 54.313c4.465 0 8.091 3.633 8.091 8.108 0 4.476-3.626 8.11-8.091 8.11-4.466 0-8.092-3.634-8.092-8.11 0-4.475 3.626-8.108 8.092-8.108zm0 1.002c3.913 0 7.091 3.184 7.091 7.106 0 3.923-3.178 7.107-7.091 7.107-3.914 0-7.092-3.184-7.092-7.107 0-3.922 3.178-7.106 7.092-7.106z" fill="#FFF"/><path d="M76.31 54.313c4.466 0 8.092 3.633 8.092 8.108 0 4.476-3.626 8.11-8.091 8.11-4.466 0-8.092-3.634-8.092-8.11 0-4.475 3.626-8.108 8.092-8.108z" fill="#146396"/><path d="M76.31 54.313c4.466 0 8.092 3.633 8.092 8.108 0 4.476-3.626 8.11-8.091 8.11-4.466 0-8.092-3.634-8.092-8.11 0-4.475 3.626-8.108 8.092-8.108zm0 1.002c3.914 0 7.092 3.184 7.092 7.106 0 3.923-3.178 7.107-7.091 7.107-3.914 0-7.092-3.184-7.092-7.107 0-3.922 3.178-7.106 7.092-7.106z" fill="#FFF"/><path d="M80.14 58.812a1.26 1.26 0 010 2.521 1.26 1.26 0 010-2.52zM84.402 31.893h18.267v-3.31H84.402zM73.533 31.893h6.6v-1.655h-6.6zM64.919 31.893h6.6v-1.655h-6.6z" fill="#60A1CC"/><path fill="#3D79A1" d="M83.334.703L26.06 30.238l1.068 2.08L84.402 2.782z"/><path d="M26.155 30.238c2.115 0 3.833.741 3.833 1.655 0 .913-1.718 1.655-3.833 1.655-2.116 0-3.833-.742-3.833-1.655 0-.914 1.717-1.655 3.833-1.655z" fill="#146396"/><path d="M82.773.216a2.337 2.337 0 012.334 2.339 2.337 2.337 0 01-2.334 2.338 2.337 2.337 0 01-2.333-2.338A2.337 2.337 0 0182.773.216z" fill="#3D79A1"/><path d="M24.403 65.653a1.176 1.176 0 010 2.353 1.175 1.175 0 010-2.353zM33.161 65.653a1.176 1.176 0 010 2.353 1.175 1.175 0 010-2.353zM28.782 65.653a1.175 1.175 0 010 2.353 1.175 1.175 0 010-2.353zM41.92 65.653a1.176 1.176 0 010 2.353 1.175 1.175 0 010-2.353zM46.299 65.653a1.175 1.175 0 010 2.353 1.175 1.175 0 010-2.353zM37.54 65.653a1.175 1.175 0 010 2.353 1.175 1.175 0 010-2.353zM50.678 65.653a1.176 1.176 0 010 2.353 1.175 1.175 0 010-2.353zM24.403 62.031a1.175 1.175 0 010 2.352 1.175 1.175 0 010-2.352zM33.161 62.031a1.175 1.175 0 010 2.352 1.175 1.175 0 010-2.352zM28.782 62.031a1.175 1.175 0 010 2.352 1.175 1.175 0 010-2.352zM41.92 62.031a1.175 1.175 0 010 2.352 1.175 1.175 0 010-2.352zM46.299 62.031a1.175 1.175 0 010 2.352 1.175 1.175 0 010-2.352zM37.54 62.031a1.175 1.175 0 010 2.352 1.175 1.175 0 010-2.352zM50.678 62.031a1.175 1.175 0 010 2.352 1.175 1.175 0 010-2.352zM33.161 58.409a1.175 1.175 0 010 2.352 1.175 1.175 0 010-2.352zM28.782 58.409a1.175 1.175 0 010 2.352 1.175 1.175 0 010-2.352zM41.92 58.409a1.175 1.175 0 010 2.352 1.175 1.175 0 010-2.352zM46.299 58.409a1.175 1.175 0 010 2.352 1.175 1.175 0 010-2.352zM37.54 58.409a1.175 1.175 0 010 2.352 1.175 1.175 0 010-2.352zM33.161 54.786a1.175 1.175 0 010 2.352 1.176 1.176 0 010-2.352zM41.92 54.786a1.175 1.175 0 010 2.352 1.176 1.176 0 010-2.352zM37.54 54.786a1.175 1.175 0 010 2.352 1.175 1.175 0 010-2.352zM24.403 69.276a1.175 1.175 0 010 2.352 1.175 1.175 0 010-2.352zM33.161 69.276a1.175 1.175 0 010 2.352 1.175 1.175 0 010-2.352zM28.782 69.276a1.175 1.175 0 010 2.352 1.175 1.175 0 010-2.352zM41.92 69.276a1.175 1.175 0 010 2.352 1.175 1.175 0 010-2.352zM46.299 69.276a1.175 1.175 0 010 2.352 1.175 1.175 0 010-2.352zM37.54 69.276a1.175 1.175 0 010 2.352 1.175 1.175 0 010-2.352zM50.678 69.276a1.175 1.175 0 010 2.352 1.175 1.175 0 010-2.352zM33.161 72.898a1.175 1.175 0 010 2.352 1.175 1.175 0 010-2.352zM28.782 72.898a1.175 1.175 0 010 2.352 1.175 1.175 0 010-2.352zM41.92 72.898a1.175 1.175 0 010 2.352 1.175 1.175 0 010-2.352zM46.299 72.898a1.175 1.175 0 010 2.352 1.175 1.175 0 010-2.352zM37.54 72.898a1.175 1.175 0 010 2.352 1.175 1.175 0 010-2.352zM33.161 76.52a1.176 1.176 0 010 2.353 1.175 1.175 0 010-2.352zM41.92 76.52a1.176 1.176 0 010 2.353 1.175 1.175 0 010-2.352zM37.54 76.52a1.175 1.175 0 010 2.353 1.175 1.175 0 010-2.352zM102.669 44.014c0-4.195-3.398-7.6-7.584-7.6H28.649c-4.186 0-7.584 3.405-7.584 7.6s3.398 7.6 7.584 7.6h66.436c4.186 0 7.584-3.405 7.584-7.6z" fill="#FFF"/><path fill="#60A1CC" d="M28.576 48.889h1.48v-9.75h-1.48zM35.086 48.889h1.48v-9.75h-1.48zM31.831 46.762h1.48v-5.496h-1.48zM41.597 48.889h1.48v-9.75h-1.48zM38.341 46.762h1.48v-5.496h-1.48zM48.107 48.889h1.48v-9.75h-1.48zM44.852 46.762h1.48v-5.496h-1.48zM54.617 48.889h1.48v-9.75h-1.48zM51.362 46.762h1.48v-5.496h-1.48zM61.127 48.889h1.48v-9.75h-1.48zM57.872 46.762h1.48v-5.496h-1.48zM67.637 48.889h1.48v-9.75h-1.48zM64.382 46.762h1.48v-5.496h-1.48zM74.148 48.889h1.48v-9.75h-1.48zM70.893 46.762h1.48v-5.496h-1.48zM80.658 48.889h1.48v-9.75h-1.48zM77.403 46.762h1.48v-5.496h-1.48zM87.168 48.889h1.48v-9.75h-1.48zM83.913 46.762h1.48v-5.496h-1.48zM90.423 46.762h1.48v-5.496h-1.48zM93.678 48.889h1.48v-9.75h-1.48z"/><path fill="#A40000" d="M84.178 49.987l2.041 1.627h-4.082z"/><path d="M45.8 82.874c2.164-2.64 6.518-4.446 11.531-4.446 3.502 0 6.681.881 9.018 2.312M2.197 96.018c-.988-4.246 3.155-8.04 7.996-7.54.192.02 0 .372 0 0 0-3.126 2.948-4.695 6.389-5.604 2.393-.632 6.888-1.473 13.49-.327.952.165 1.911.412 1.911.412M88.648 82.686c2.382-1.756 5.911-2.869 9.847-2.869 5.371 0 9.985 2.073 11.961 5.026.338-.022.68-.032 1.027-.032 5.698 0 10.324 2.934 10.324 6.548 0 1.728-1.056 3.3-2.782 4.471" stroke="#61A6D3" stroke-width="3" stroke-linecap="round" stroke-linejoin="round"/><path d="M30.268 82.547c2.356-2.092 6.217-3.457 10.576-3.457 2.768 0 5.336.55 7.444 1.488" stroke="#61A6D3" stroke-width="4" stroke-linecap="round" stroke-linejoin="round"/><path d="M64.128 79.649c3.726-1.983 8.315-3.154 13.275-3.154 5.813 0 11.115 1.608 15.118 4.247" stroke="#61A6D3" stroke-width="3" stroke-linecap="round" stroke-linejoin="round"/><path d="M23.765 153.555v-22.658H28.9l1.095 2.321c.842-.703 1.901-1.33 3.178-1.878a9.883 9.883 0 013.937-.822c1.852 0 3.284.365 4.294 1.097 1.01.731 1.72 1.709 2.127 2.932.406 1.224.61 2.58.61 4.072v14.936h-6.231V139.42c0-.73-.133-1.336-.4-1.814a2.707 2.707 0 00-1.116-1.097c-.477-.253-1.052-.38-1.726-.38-.59 0-1.158.07-1.705.211a7.42 7.42 0 00-1.558.591 9.893 9.893 0 00-1.41.886v15.738h-6.231zM47.268 153.555h6.231v-22.658h-6.231zM56.941 153.555v-22.658h5.136l1.095 2.321c.842-.703 1.902-1.33 3.179-1.878a9.883 9.883 0 013.936-.822c1.853 0 3.284.365 4.295 1.097 1.01.731 1.719 1.709 2.126 2.932.407 1.224.61 2.58.61 4.072v14.936h-6.23V139.42c0-.73-.134-1.336-.4-1.814a2.707 2.707 0 00-1.116-1.097c-.478-.253-1.053-.38-1.727-.38-.589 0-1.157.07-1.705.211a7.41 7.41 0 00-1.557.591 9.896 9.896 0 00-1.411.886v15.738h-6.231zM90.96 153.766c-2.499 0-4.491-.33-5.979-.991-1.488-.661-2.561-1.836-3.221-3.524-.66-1.687-.99-4.022-.99-7.004 0-3.066.31-5.443.927-7.13.617-1.688 1.656-2.87 3.116-3.545 1.459-.675 3.438-1.012 5.936-1.012 2.245 0 4.042.225 5.389.675 1.347.45 2.323 1.238 2.926 2.363.604 1.125.905 2.714.905 4.767 0 1.52-.301 2.722-.905 3.608-.603.886-1.452 1.52-2.547 1.899-1.095.38-2.386.57-3.874.57H86.96c.056 1.153.231 2.074.526 2.763.295.69.842 1.182 1.642 1.477.8.295 1.958.443 3.473.443h6.61v3.67a86.445 86.445 0 01-3.6.655c-1.304.21-2.855.316-4.652.316zm-4.084-13.038h5.136c.842 0 1.46-.168 1.852-.506.393-.338.59-.942.59-1.814 0-.816-.126-1.47-.379-1.962a2.176 2.176 0 00-1.179-1.055c-.533-.211-1.249-.317-2.147-.317-.954 0-1.712.162-2.274.486-.561.323-.968.893-1.22 1.708-.253.816-.38 1.97-.38 3.46zM17.924 123.233c-1.376 0-2.646-.183-3.81-.549a7.154 7.154 0 01-3.01-1.835c-.843-.858-1.495-2.025-1.959-3.502-.463-1.477-.694-3.34-.694-5.59 0-2.307.21-4.22.631-5.74.421-1.518 1.046-2.72 1.874-3.607.828-.886 1.845-1.512 3.052-1.877 1.207-.366 2.568-.549 4.084-.549 1.375 0 2.688.078 3.937.232 1.249.155 2.561.43 3.936.823v3.586H20.03c-1.291 0-2.33.19-3.116.57-.786.38-1.354 1.083-1.705 2.11-.35 1.026-.526 2.496-.526 4.409 0 1.885.175 3.319.526 4.304.351.984.926 1.645 1.726 1.983.8.337 1.86.506 3.179.506h6.189v3.544c-.702.225-1.516.43-2.442.612-.926.183-1.902.324-2.926.422a31.434 31.434 0 01-3.01.148zM36.827 123.064c-1.6 0-2.926-.26-3.978-.78-1.053-.521-1.832-1.323-2.337-2.406-.505-1.083-.758-2.482-.758-4.198V90.786h6.231v23.966c0 .844.085 1.512.253 2.004.168.492.428.85.779 1.076.35.225.793.38 1.326.464l1.726.253v4.515h-3.242zM51.142 123.19c-1.852 0-3.438-.19-4.757-.569-1.32-.38-2.393-1.02-3.221-1.92-.828-.9-1.432-2.096-1.81-3.586-.38-1.491-.569-3.334-.569-5.528 0-2.306.19-4.212.568-5.717.38-1.505.983-2.686 1.811-3.544.828-.858 1.908-1.463 3.242-1.814 1.333-.352 2.912-.528 4.736-.528 1.88 0 3.48.183 4.8.549 1.319.365 2.393.977 3.22 1.835.829.858 1.432 2.04 1.811 3.544.379 1.505.568 3.397.568 5.675 0 2.25-.182 4.128-.547 5.633-.365 1.505-.954 2.694-1.768 3.565-.814.873-1.888 1.491-3.221 1.857-1.333.366-2.954.549-4.863.549zm0-4.978c.758 0 1.397-.07 1.916-.211.519-.14.94-.43 1.263-.865.323-.436.568-1.104.737-2.004.168-.9.252-2.082.252-3.545 0-1.49-.084-2.679-.252-3.565-.169-.886-.414-1.547-.737-1.983a2.27 2.27 0 00-1.263-.865c-.52-.14-1.158-.211-1.916-.211-.73 0-1.354.07-1.873.211-.52.14-.948.429-1.284.865-.337.436-.583 1.097-.737 1.983-.155.886-.232 2.075-.232 3.565 0 1.463.077 2.645.232 3.545.154.9.4 1.568.737 2.004.336.436.764.724 1.284.865.519.14 1.143.21 1.873.21zM72.193 123.233c-2.02 0-3.607-.598-4.757-1.793-1.151-1.196-1.727-2.89-1.727-5.085v-16.033h6.232v14.177c0 1.266.301 2.116.905 2.552.603.436 1.396.654 2.379.654.785 0 1.592-.147 2.42-.443a7.787 7.787 0 002.21-1.202v-15.738h6.274v22.658H80.95l-1.094-2.321c-1.01.675-2.176 1.273-3.495 1.793s-2.708.78-4.168.78zM97.707 123.233c-1.768 0-3.256-.373-4.463-1.118-1.207-.746-2.112-1.955-2.715-3.629-.604-1.674-.906-3.875-.906-6.603 0-2.813.26-5.092.78-6.836.519-1.744 1.396-3.024 2.63-3.84 1.236-.815 2.934-1.223 5.095-1.223 1.039 0 2.063.106 3.073.317a20.4 20.4 0 012.695.738V90.786h6.273v32.194h-5.263l-1.01-2.152c-.477.45-1.06.858-1.747 1.223-.688.366-1.41.654-2.169.865a8.45 8.45 0 01-2.273.317zm2.19-5.021c.841 0 1.606-.14 2.294-.422s1.256-.563 1.705-.844v-11.392a64.868 64.868 0 00-1.768-.591 6.48 6.48 0 00-1.979-.295c-1.039 0-1.874.183-2.505.548-.632.366-1.088 1.048-1.368 2.047-.281.998-.422 2.44-.422 4.324 0 1.744.134 3.102.4 4.072.267.97.695 1.639 1.285 2.004.589.366 1.375.549 2.357.549z" fill="#61A6D3"/></g></svg>