<svg width="147" height="180" xmlns="http://www.w3.org/2000/svg"><g transform="translate(32,55)" stroke-width="3" stroke="#000" fill="none" fill-rule="evenodd" stroke-linecap="round" stroke-linejoin="round"><path d="M36 2.118v68.04M70.436 36H2.397M12.362 12.083l48.11 48.11M60.473 12.083l-48.111 48.11M12.362 19.931h7.848v-7.848M60.473 19.931h-7.85v-7.848M52.622 60.194v-7.85h7.85M20.21 52.343h-7.85 7.85zM20 52.343v7.85M30.866 7.67l5.551 5.55 5.55-5.55M64.886 41.69l-5.55-5.552 5.55-5.55M30.866 64.607l5.551-5.55 5.55 5.55M13.498 36.138l-5.551-5.55 5.55 5.55zM13.498 36.138l-5.55 5.551"/></g></svg>