<svg width="147" height="180" xmlns="http://www.w3.org/2000/svg"><g transform="translate(0,20)" stroke="#000" stroke-width="3" fill="none" fill-rule="evenodd" stroke-linecap="round" stroke-linejoin="round"><path d="M126.064 46.904a26.443 26.443 0 007.692-15.233c-.158.002-.312.024-.47.024-14.566 0-26.375-11.84-26.375-26.446 0-1.257.118-2.484.288-3.694-10.76.192-19.95 6.832-23.872 16.235M101.116 95.997c14.076 0 25.485-11.44 25.485-25.554 0-14.113-11.41-25.554-25.485-25.554-2.206 0-4.333.31-6.375.838-2.901-13.01-14.467-22.738-28.315-22.738-14.327 0-26.199 10.413-28.575 24.096a25.305 25.305 0 00-10.311-2.198c-14.075 0-25.485 11.44-25.485 25.554 0 14.113 11.41 25.554 25.485 25.554"/></g></svg>