<svg width="147" height="180" xmlns="http://www.w3.org/2000/svg"><g transform="translate(0,40)" stroke="#000" stroke-width="3" fill="none" fill-rule="evenodd" stroke-linecap="round" stroke-linejoin="round"><path d="M101.736 23.891c-2.214 0-4.348.31-6.398.836C92.426 11.741 80.82 2.032 66.923 2.032c-14.378 0-26.292 10.394-28.676 24.051a25.512 25.512 0 00-10.349-2.194c-14.125 0-25.575 11.418-25.575 25.505 0 14.088 11.45 25.506 25.575 25.506h73.838c14.126 0 25.575-11.418 25.575-25.506 0-14.087-11.45-25.503-25.575-25.503zM29.291 83.577l-12.705 12.67M106.035 83.577L93.33 96.247M55.553 83.577L27.31 111.742M83.795 83.577l-28.242 28.165"/></g></svg>