<svg width="147" height="180" xmlns="http://www.w3.org/2000/svg"><g stroke="#000" stroke-width="3" fill="none" fill-rule="evenodd" stroke-linecap="round" stroke-linejoin="round"><path d="M76.948 32.076c4.666-5.556 11.667-9.087 19.49-9.087 14.05 0 25.438 11.384 25.438 25.427 0 3.511-.712 6.856-2 9.898M75.779 20.477l-8.195-9.081M102.854 12.564V2.057M125.425 26.078l8.87-8.864M130.768 45.298h14.017M100.774 111.217c14.046 0 25.432-11.38 25.432-25.42 0-14.041-11.386-25.422-25.432-25.422-2.202 0-4.324.309-6.362.833-2.896-12.942-14.437-22.62-28.257-22.62-14.298 0-26.145 10.36-28.516 23.972a25.32 25.32 0 00-10.29-2.187c-14.047 0-25.433 11.38-25.433 25.42 0 14.04 11.386 25.421 25.432 25.421"/></g></svg>