<svg width="147" height="180" xmlns="http://www.w3.org/2000/svg"><g transform="translate(0,40)" stroke="#000" stroke-width="3" fill="none" fill-rule="evenodd" stroke-linecap="round" stroke-linejoin="round"><path d="M100.778 24.315c-2.207 0-4.336.31-6.38.836C91.496 12.167 79.924 2.46 66.066 2.46c-14.336 0-26.216 10.392-28.593 24.047a25.38 25.38 0 00-10.319-2.194c-14.084 0-25.501 11.416-25.501 25.5 0 14.085 11.417 25.502 25.501 25.502h73.625c14.085 0 25.502-11.417 25.502-25.501 0-14.085-11.417-25.499-25.502-25.499zM53.682 75.32L37.984 91.02h24.778l-19.741 19.74h11.093l-14.988 14.989M78.84 75.32l-9.792 9.79H82.95L69.52 98.543"/></g></svg>